<?xml version="1.0" encoding="utf-8" standalone="no"?>
<!DOCTYPE svg PUBLIC "-//W3C//DTD SVG 1.1//EN"
  "http://www.w3.org/Graphics/SVG/1.1/DTD/svg11.dtd">
<!-- Created with matplotlib (http://matplotlib.org/) -->
<svg height="140pt" version="1.1" viewBox="0 0 226 140" width="226pt" xmlns="http://www.w3.org/2000/svg" xmlns:xlink="http://www.w3.org/1999/xlink">
 <defs>
  <style type="text/css">
*{stroke-linecap:butt;stroke-linejoin:round;stroke-miterlimit:100000;}
  </style>
 </defs>
 <g id="figure_1">
  <g id="patch_1">
   <path d="M 0 140.15259 
L 226.77192 140.15259 
L 226.77192 0 
L 0 0 
z
" style="fill:#ffffff;"/>
  </g>
  <g id="axes_1">
   <g id="patch_2">
    <path d="M 31.748069 128.940382 
L 224.504201 128.940382 
L 224.504201 1.401526 
L 31.748069 1.401526 
z
" style="fill:#ffffff;"/>
   </g>
   <g id="line2d_1">
    <path clip-path="url(#pc6ffed1cdf)" d="M 31.748069 106.416732 
L 31.908699 110.831913 
L 32.069329 113.486179 
L 32.229959 113.923207 
L 32.551219 109.167174 
L 32.711849 110.020412 
L 32.87248 111.636479 
L 33.19374 106.580029 
L 33.35437 109.821838 
L 33.515 115.878287 
L 33.67563 115.441512 
L 33.83626 111.785114 
L 34.15752 113.439 
L 34.318151 111.828543 
L 34.478781 107.88109 
L 34.639411 109.361318 
L 34.960671 115.71171 
L 35.281931 110.61877 
L 35.442561 113.877136 
L 35.603191 114.503444 
L 35.924452 108.551028 
L 36.085082 110.21764 
L 36.406342 119.022353 
L 36.727602 110.302993 
L 37.048862 114.486314 
L 37.370123 105.692549 
L 37.530753 108.625389 
L 37.691383 113.664172 
L 37.852013 114.645849 
L 38.173273 109.213108 
L 38.333903 110.580235 
L 38.815794 106.881549 
L 38.976424 109.091591 
L 39.297684 117.922676 
L 39.618944 111.236107 
L 39.779574 111.604035 
L 39.940204 111.001584 
L 40.100835 108.168557 
L 40.261465 109.32306 
L 40.582725 117.526741 
L 40.903985 115.451658 
L 41.064615 115.575764 
L 41.225245 115.347803 
L 41.707136 104.958992 
L 42.028396 118.60561 
L 42.189026 117.011863 
L 42.510286 111.100982 
L 42.670916 112.048232 
L 42.992176 109.269397 
L 43.152807 110.135535 
L 43.474067 114.528701 
L 43.795327 109.436421 
L 44.116587 110.858254 
L 44.437847 106.282109 
L 44.598478 108.036883 
L 44.919738 116.785598 
L 45.080368 115.085607 
L 45.240998 111.103855 
L 45.562258 112.971784 
L 45.883518 107.8141 
L 46.204779 114.410566 
L 46.365409 113.245095 
L 46.686669 108.0571 
L 46.847299 107.770129 
L 47.168559 108.913349 
L 47.329189 104.422957 
L 47.48982 107.200412 
L 47.65045 114.760617 
L 47.81108 117.004345 
L 47.97171 114.397389 
L 48.13234 114.605743 
L 48.29297 113.574323 
L 48.4536 111.719358 
L 48.61423 108.257185 
L 48.77486 108.24872 
L 48.935491 113.649251 
L 49.096121 113.689142 
L 49.417381 110.207036 
L 49.738641 110.476486 
L 49.899271 108.943556 
L 50.059901 108.513922 
L 50.220531 107.42695 
L 50.381162 110.749336 
L 50.541792 117.329804 
L 50.702422 116.87938 
L 51.344942 109.973561 
L 51.505572 105.67894 
L 51.666202 106.93852 
L 51.826833 115.497792 
L 51.987463 117.59724 
L 52.148093 115.22808 
L 52.469353 108.337501 
L 52.629983 109.007578 
L 52.790613 108.450049 
L 52.951243 106.118724 
L 53.111873 107.333739 
L 53.593764 113.811358 
L 53.754394 114.253378 
L 53.915024 115.766162 
L 54.075654 115.614326 
L 54.396914 106.196909 
L 54.718175 117.690953 
L 55.200065 112.33063 
L 55.521325 109.774436 
L 56.003215 107.573027 
L 56.324476 112.97829 
L 56.485106 108.934725 
L 56.806366 112.951224 
L 56.966996 109.361986 
L 57.127626 109.050762 
L 57.609517 115.227526 
L 57.770147 113.656711 
L 57.930777 113.482286 
L 58.091407 110.720114 
L 58.252037 112.870966 
L 58.412667 112.82454 
L 58.733927 104.233453 
L 59.055188 115.241109 
L 59.215818 114.03339 
L 59.376448 109.712365 
L 59.537078 108.802091 
L 59.697708 112.655556 
L 59.858338 110.955231 
L 60.018968 105.598241 
L 60.179598 105.705377 
L 60.340228 110.22127 
L 60.500858 110.674321 
L 60.822119 107.130247 
L 61.143379 110.555703 
L 61.464639 102.750442 
L 61.625269 106.131452 
L 61.946529 116.282444 
L 62.26779 108.606198 
L 62.42842 111.966426 
L 62.58905 112.626046 
L 62.74968 106.457749 
L 62.91031 105.551666 
L 63.3922 118.151199 
L 63.874091 110.971942 
L 64.034721 110.303923 
L 64.355981 104.077227 
L 64.677241 112.474982 
L 64.837871 114.269884 
L 65.159132 109.896935 
L 65.319762 110.722561 
L 65.480392 109.797761 
L 65.641022 108.078931 
L 65.801652 108.635384 
L 66.122912 114.773019 
L 66.283542 114.551801 
L 66.604803 111.32092 
L 66.765433 112.255679 
L 66.926063 111.328024 
L 67.086693 106.693106 
L 67.247323 105.434471 
L 67.568583 113.384747 
L 67.729213 111.335353 
L 67.889844 107.672913 
L 68.050474 108.672444 
L 68.211104 110.949474 
L 68.532364 101.432719 
L 69.014254 113.188551 
L 69.496145 107.983766 
L 69.656775 109.325656 
L 69.817405 109.469394 
L 69.978035 108.106053 
L 70.138665 109.359672 
L 70.299295 113.573984 
L 70.459925 113.996587 
L 70.781186 106.536252 
L 71.102446 111.653786 
L 71.423706 108.584537 
L 71.744966 110.409898 
L 71.905596 114.374043 
L 72.066226 112.204212 
L 72.226857 108.407701 
L 72.387487 107.735774 
L 72.548117 110.290693 
L 72.708747 105.971835 
L 72.869377 106.594111 
L 73.030007 109.162303 
L 73.190637 115.016179 
L 73.351267 115.90392 
L 73.511897 112.154156 
L 73.672528 111.282219 
L 73.833158 108.559046 
L 73.993788 108.878416 
L 74.154418 106.210564 
L 74.636308 113.034246 
L 75.118199 110.50158 
L 75.278829 111.376525 
L 75.439459 109.873283 
L 75.600089 105.478841 
L 75.760719 107.263978 
L 76.081979 113.346699 
L 76.242609 113.098197 
L 76.403239 110.396014 
L 76.563869 110.144692 
L 76.7245 109.39406 
L 77.04576 110.594657 
L 77.20639 109.345815 
L 77.36702 110.139924 
L 77.52765 113.805715 
L 77.84891 110.679541 
L 78.00954 111.020929 
L 78.170171 111.025875 
L 78.330801 108.894313 
L 78.491431 104.237223 
L 78.652061 105.870926 
L 78.973321 114.951872 
L 79.455211 105.991912 
L 79.615842 108.600005 
L 79.776472 108.479306 
L 79.937102 106.868331 
L 80.258362 111.403401 
L 80.418992 112.885877 
L 80.740252 109.428948 
L 81.061513 113.387058 
L 81.222143 109.915886 
L 81.382773 103.691317 
L 81.543403 105.643064 
L 81.704033 110.770358 
L 81.864663 112.220875 
L 82.025293 110.447537 
L 82.346553 113.352821 
L 82.507184 108.673306 
L 82.667814 107.433291 
L 82.989074 110.197463 
L 83.149704 116.075753 
L 83.310334 113.799755 
L 83.470964 107.515688 
L 83.631594 108.581773 
L 83.792224 111.295306 
L 83.952855 110.933326 
L 84.113485 110.272364 
L 84.274115 107.237973 
L 84.595375 115.859554 
L 84.916635 108.789678 
L 85.237895 113.243964 
L 85.398526 111.840681 
L 85.559156 106.932313 
L 85.719786 109.226433 
L 85.880416 116.635273 
L 86.041046 118.543689 
L 86.201676 116.121599 
L 86.362306 111.966626 
L 86.683566 111.382184 
L 87.004827 104.12061 
L 87.486717 112.051537 
L 87.807977 104.99312 
L 87.968607 105.180001 
L 88.129237 106.001199 
L 88.289868 103.030777 
L 88.450498 102.985003 
L 88.771758 114.001276 
L 88.932388 113.357835 
L 89.093018 110.055525 
L 89.253648 112.306223 
L 89.414278 110.875894 
L 89.574908 107.354585 
L 89.735539 108.580582 
L 89.896169 108.473763 
L 90.217429 120.113954 
L 90.378059 118.456856 
L 90.699319 111.697559 
L 90.859949 110.839853 
L 91.181209 103.076562 
L 91.34184 104.822329 
L 91.6631 118.240925 
L 91.98436 108.635672 
L 92.14499 109.558566 
L 92.30562 111.94214 
L 92.46625 110.800279 
L 92.62688 106.175599 
L 92.787511 107.18287 
L 93.108771 117.909458 
L 93.590661 107.622772 
L 93.751291 110.166899 
L 93.911921 109.3152 
L 94.072551 103.84703 
L 94.233182 108.076056 
L 94.393812 115.321515 
L 94.554442 116.137412 
L 94.715072 111.750444 
L 94.875702 111.337591 
L 95.036332 112.943841 
L 95.357592 107.493601 
L 96.000113 118.789567 
L 96.160743 113.049373 
L 96.321373 112.175047 
L 96.482003 115.744748 
L 96.642633 114.406347 
L 96.803263 106.72378 
L 96.963893 105.966446 
L 97.124524 108.725719 
L 97.285154 114.178698 
L 97.445784 114.247218 
L 97.606414 112.574352 
L 97.767044 112.309141 
L 97.927674 110.579331 
L 98.088304 111.346129 
L 98.409564 105.740737 
L 98.730825 116.489898 
L 98.891455 114.005195 
L 99.052085 108.56989 
L 99.212715 109.159682 
L 99.373345 111.125649 
L 99.533975 110.786163 
L 99.694605 105.234504 
L 99.855235 105.987038 
L 100.176496 112.993516 
L 100.337126 114.198141 
L 100.497756 113.342979 
L 100.819016 108.578748 
L 100.979646 105.635143 
L 101.140276 105.021711 
L 101.622167 122.917977 
L 101.782797 118.850544 
L 101.943427 111.290228 
L 102.264687 108.654107 
L 102.425317 109.173985 
L 102.585947 107.080045 
L 102.746577 109.362347 
L 102.907208 114.572186 
L 103.067838 114.796348 
L 103.389098 109.832786 
L 103.549728 112.250627 
L 103.710358 109.032001 
L 103.870988 109.125702 
L 104.031618 110.415076 
L 104.352879 115.400144 
L 104.513509 115.589021 
L 104.674139 114.046593 
L 104.834769 115.345967 
L 104.995399 115.040723 
L 105.156029 113.561473 
L 105.316659 108.342141 
L 105.477289 107.729503 
L 105.79855 114.805715 
L 105.95918 112.791693 
L 106.11981 107.963846 
L 106.28044 107.754503 
L 106.44107 108.626059 
L 106.92296 102.222453 
L 107.24422 113.538526 
L 107.404851 112.285328 
L 107.565481 108.393948 
L 107.726111 107.722164 
L 107.886741 108.081396 
L 108.208001 104.776773 
L 108.368631 105.514596 
L 108.689891 113.895036 
L 108.850522 111.351774 
L 109.171782 104.217041 
L 109.332412 104.484521 
L 109.653672 100.488761 
L 109.814302 100.327162 
L 109.974932 103.508611 
L 110.135562 103.955356 
L 110.456823 94.9567 
L 110.617453 95.665689 
L 110.778083 93.966739 
L 111.259973 84.293458 
L 111.420603 87.737569 
L 111.581233 84.886841 
L 112.063124 63.147307 
L 112.223754 61.786844 
L 112.705644 38.4262 
L 112.866274 37.563361 
L 113.026904 34.33424 
L 113.348165 21.699454 
L 113.669425 19.479232 
L 113.830055 13.064588 
L 113.990685 14.516941 
L 114.311945 25.096407 
L 114.472575 24.950899 
L 114.633206 27.877768 
L 115.115096 45.966951 
L 115.436356 52.702689 
L 115.918246 72.726733 
L 116.078877 74.101606 
L 116.400137 79.057983 
L 116.560767 79.767685 
L 117.203287 98.690632 
L 117.524548 91.965246 
L 117.845808 98.665983 
L 118.006438 96.725277 
L 118.167068 93.226266 
L 118.327698 93.500413 
L 118.488328 95.207052 
L 118.809588 105.243339 
L 119.130849 99.588912 
L 119.291479 101.658151 
L 119.452109 100.008679 
L 119.612739 95.189754 
L 119.773369 97.795188 
L 119.933999 97.962526 
L 120.255259 90.103999 
L 120.41589 89.752967 
L 120.57652 90.660814 
L 120.73715 90.564254 
L 120.89778 88.892876 
L 121.05841 85.608429 
L 121.21904 84.905372 
L 121.5403 88.770234 
L 121.861561 74.499199 
L 122.343451 64.024905 
L 122.504081 58.622214 
L 122.825341 61.49748 
L 123.467862 48.508824 
L 123.628492 46.518909 
L 123.949752 37.321337 
L 124.110382 42.35889 
L 124.271012 52.287755 
L 124.592272 48.689585 
L 124.752902 48.194073 
L 125.234793 39.416346 
L 125.395423 41.357198 
L 125.556053 48.910797 
L 125.877313 50.955369 
L 126.037943 50.218581 
L 126.198573 53.637522 
L 126.519834 52.652876 
L 126.680464 52.38936 
L 126.841094 55.710242 
L 127.162354 65.232771 
L 127.322984 66.855645 
L 127.483614 67.056443 
L 127.644244 69.01841 
L 127.965505 67.116985 
L 128.126135 67.245063 
L 128.286765 69.574378 
L 128.447395 80.466939 
L 128.608025 83.393613 
L 128.768655 79.682654 
L 129.089915 87.475642 
L 129.250546 87.152194 
L 129.411176 87.287275 
L 129.571806 87.08135 
L 129.732436 90.295791 
L 130.053696 99.218457 
L 130.214326 95.04695 
L 130.535586 98.586498 
L 130.696217 99.505974 
L 131.017477 92.13334 
L 131.178107 94.063859 
L 131.338737 97.359319 
L 131.659997 94.241322 
L 131.981257 98.224836 
L 132.141888 96.897482 
L 132.302518 93.967403 
L 132.463148 93.730916 
L 132.784408 106.137734 
L 132.945038 98.846131 
L 133.105668 97.244516 
L 133.266298 98.255142 
L 133.426928 98.367343 
L 133.748189 91.862889 
L 134.069449 95.472831 
L 134.551339 88.198456 
L 134.711969 89.528821 
L 134.872599 88.464576 
L 135.03323 83.420889 
L 135.19386 82.539635 
L 135.35449 83.363129 
L 135.51512 88.343097 
L 135.67575 89.809567 
L 135.99701 74.845369 
L 136.15764 75.424472 
L 136.31827 73.844556 
L 136.800161 52.802419 
L 136.960791 54.311846 
L 137.121421 50.175011 
L 137.442681 36.649143 
L 137.763941 24.693682 
L 138.085202 13.366517 
L 138.406462 24.155404 
L 138.727722 15.705533 
L 138.888352 16.389238 
L 139.048982 16.435054 
L 139.209612 16.650474 
L 139.370242 13.841321 
L 139.530873 16.692429 
L 139.852133 29.291746 
L 140.012763 29.121735 
L 140.334023 31.889608 
L 140.976544 50.88099 
L 141.458434 72.606319 
L 141.619064 71.969776 
L 142.100954 83.516514 
L 142.261584 83.527058 
L 142.582845 95.339484 
L 142.743475 100.9615 
L 142.904105 100.70158 
L 143.064735 97.55135 
L 143.225365 97.610034 
L 143.385995 99.443195 
L 143.546625 99.384601 
L 143.707255 95.807777 
L 144.189146 103.57046 
L 144.349776 101.698686 
L 144.510406 98.281297 
L 144.671036 100.045484 
L 144.831666 99.97949 
L 145.152926 94.47544 
L 145.474187 105.673973 
L 145.634817 104.449017 
L 145.795447 105.446382 
L 145.956077 104.937731 
L 146.277337 99.685217 
L 146.437967 97.072673 
L 146.598597 96.58564 
L 146.919858 102.599499 
L 147.401748 96.507145 
L 147.562378 99.657566 
L 147.723008 99.380828 
L 147.883638 93.44599 
L 148.044268 93.721257 
L 148.365529 101.884891 
L 148.526159 100.560465 
L 148.686789 95.0768 
L 148.847419 93.533447 
L 149.008049 93.782615 
L 149.168679 93.627945 
L 149.329309 88.335134 
L 149.489939 87.236159 
L 149.8112 96.890648 
L 150.29309 85.420578 
L 150.45372 83.521068 
L 150.93561 68.524475 
L 151.096241 66.476591 
L 151.256871 66.515626 
L 152.060021 35.105517 
L 152.220651 32.969604 
L 152.381281 34.723693 
L 152.541912 38.750637 
L 152.702542 37.778235 
L 153.023802 33.181526 
L 153.345062 37.119795 
L 153.666322 32.789834 
L 153.987583 48.317936 
L 154.148213 49.56581 
L 154.308843 49.06408 
L 154.469473 49.410076 
L 155.111993 70.659316 
L 155.272623 73.563935 
L 155.593884 83.959622 
L 155.754514 79.810215 
L 155.915144 81.479437 
L 156.236404 88.775408 
L 156.557664 85.45667 
L 156.878924 95.27551 
L 157.200185 91.911253 
L 157.682075 98.774868 
L 157.842705 98.016303 
L 158.003335 95.883234 
L 158.324595 106.416246 
L 158.485226 103.555945 
L 158.645856 102.952577 
L 158.967116 106.334948 
L 159.127746 106.519342 
L 159.288376 103.384485 
L 159.449006 102.667433 
L 159.770266 110.067045 
L 160.091527 107.485266 
L 160.252157 109.261093 
L 160.412787 108.323197 
L 160.734047 100.985224 
L 160.894677 101.861832 
L 161.215937 115.316825 
L 161.376568 113.222256 
L 161.537198 108.965638 
L 161.697828 109.854423 
L 161.858458 108.487319 
L 162.179718 101.827885 
L 162.340348 105.903673 
L 162.500978 113.587089 
L 162.661608 114.767249 
L 163.143499 107.334948 
L 163.625389 101.218739 
L 163.786019 105.510851 
L 163.946649 113.325234 
L 164.107279 115.621126 
L 164.42854 105.9536 
L 164.7498 112.153257 
L 164.91043 107.323253 
L 165.07106 106.711363 
L 165.23169 113.257312 
L 165.39232 114.496702 
L 165.713581 111.534962 
L 165.874211 111.288294 
L 166.034841 110.539462 
L 166.195471 111.860981 
L 166.516731 107.134551 
L 166.677361 110.151946 
L 166.837991 115.953386 
L 166.998621 117.237142 
L 167.319882 110.431769 
L 167.480512 112.039558 
L 167.641142 110.890524 
L 167.801772 107.773769 
L 167.962402 108.387312 
L 168.283662 116.32653 
L 168.926183 107.312399 
L 169.086813 106.716379 
L 169.247443 105.095982 
L 169.408073 107.922791 
L 169.568703 113.392415 
L 169.729333 114.508917 
L 170.050594 110.587354 
L 170.211224 111.005686 
L 170.371854 111.868831 
L 170.693114 106.910247 
L 170.853744 108.879989 
L 171.014374 113.771068 
L 171.175004 114.157757 
L 171.335634 112.615668 
L 171.496264 109.796899 
L 171.656895 110.738252 
L 171.978155 108.725303 
L 172.138785 108.101685 
L 172.460045 116.323857 
L 172.620675 114.95168 
L 172.781305 112.454632 
L 172.941935 113.020791 
L 173.102566 115.635278 
L 173.263196 114.424929 
L 173.423826 107.288393 
L 173.584456 107.616889 
L 173.745086 114.862954 
L 173.905716 116.234473 
L 174.066346 116.579312 
L 174.226976 111.888945 
L 174.387606 111.51024 
L 174.548237 113.498715 
L 175.030127 103.151854 
L 175.351387 115.737566 
L 175.512017 114.985964 
L 175.833277 110.212222 
L 175.993908 105.705112 
L 176.154538 106.267579 
L 176.315168 103.718845 
L 176.797058 114.87855 
L 176.957688 114.183607 
L 177.278948 112.153538 
L 177.439579 113.069325 
L 177.600209 111.801607 
L 177.760839 106.557884 
L 177.921469 106.640718 
L 178.242729 115.907217 
L 178.403359 114.35213 
L 178.563989 111.321047 
L 178.724619 111.663153 
L 178.88525 114.557529 
L 179.20651 110.533377 
L 179.36714 112.232943 
L 179.52777 111.702943 
L 179.6884 111.653921 
L 179.84903 111.452788 
L 180.330921 113.111501 
L 180.652181 104.387997 
L 181.134071 117.56329 
L 181.294701 112.214628 
L 181.455331 114.453875 
L 181.615961 119.04322 
L 181.937222 106.316296 
L 182.097852 107.049898 
L 182.419112 116.700883 
L 182.579742 114.782931 
L 182.740372 106.558287 
L 182.901002 106.307147 
L 183.061632 111.100345 
L 183.222263 110.741883 
L 183.543523 103.457921 
L 183.864783 114.670462 
L 184.025413 115.195345 
L 184.828564 106.670536 
L 185.310454 114.779255 
L 185.471084 112.191116 
L 185.631714 107.426036 
L 185.792344 106.222965 
L 185.952974 109.953745 
L 186.113605 106.408519 
L 186.274235 105.692196 
L 186.756125 114.771229 
L 187.077385 106.100582 
L 187.238015 110.321707 
L 187.398645 111.077684 
L 187.559275 108.632887 
L 187.719906 109.533117 
L 187.880536 111.514821 
L 188.041166 115.032143 
L 188.201796 114.462569 
L 188.362426 109.573833 
L 188.523056 109.646138 
L 188.683686 111.006715 
L 188.844316 111.187623 
L 189.165577 106.654915 
L 189.486837 117.262091 
L 189.647467 117.585253 
L 189.968727 111.852748 
L 190.129357 113.723942 
L 190.611248 105.862887 
L 190.932508 116.274533 
L 191.093138 112.600123 
L 191.253768 112.727475 
L 191.896288 107.045286 
L 192.378179 116.621577 
L 192.699439 116.061346 
L 193.341959 107.215278 
L 193.66322 115.410853 
L 193.82385 114.807334 
L 194.14511 109.237934 
L 194.46637 105.92897 
L 194.78763 105.011095 
L 195.269521 112.870632 
L 195.430151 109.00677 
L 195.590781 108.376097 
L 195.751411 112.334532 
L 195.912041 112.892262 
L 196.072671 106.872216 
L 196.072671 106.872216 
" style="fill:none;stroke:#0000ff;stroke-linecap:square;stroke-width:0.5;"/>
   </g>
   <g id="patch_3">
    <path d="M 31.748069 1.401526 
L 224.504201 1.401526 
" style="fill:none;stroke:#000000;stroke-linecap:square;stroke-linejoin:miter;stroke-width:0.5;"/>
   </g>
   <g id="patch_4">
    <path d="M 224.504201 128.940382 
L 224.504201 1.401526 
" style="fill:none;stroke:#000000;stroke-linecap:square;stroke-linejoin:miter;stroke-width:0.5;"/>
   </g>
   <g id="patch_5">
    <path d="M 31.748069 128.940382 
L 224.504201 128.940382 
" style="fill:none;stroke:#000000;stroke-linecap:square;stroke-linejoin:miter;stroke-width:0.5;"/>
   </g>
   <g id="patch_6">
    <path d="M 31.748069 128.940382 
L 31.748069 1.401526 
" style="fill:none;stroke:#000000;stroke-linecap:square;stroke-linejoin:miter;stroke-width:0.5;"/>
   </g>
   <g id="matplotlib.axis_1">
    <g id="xtick_1">
     <g id="line2d_2">
      <defs>
       <path d="M 0 0 
L 0 -4 
" id="m9ef0cf6b05" style="stroke:#000000;stroke-width:0.5;"/>
      </defs>
      <g>
       <use style="stroke:#000000;stroke-width:0.5;" x="31.7480688" xlink:href="#m9ef0cf6b05" y="128.940382409"/>
      </g>
     </g>
     <g id="line2d_3">
      <defs>
       <path d="M 0 0 
L 0 4 
" id="m74a1565c66" style="stroke:#000000;stroke-width:0.5;"/>
      </defs>
      <g>
       <use style="stroke:#000000;stroke-width:0.5;" x="31.7480688" xlink:href="#m74a1565c66" y="1.40152589575"/>
      </g>
     </g>
     <g id="text_1">
      <!-- 0 -->
      <defs>
       <path d="M 31.78125 66.40625 
Q 24.171875 66.40625 20.328125 58.90625 
Q 16.5 51.421875 16.5 36.375 
Q 16.5 21.390625 20.328125 13.890625 
Q 24.171875 6.390625 31.78125 6.390625 
Q 39.453125 6.390625 43.28125 13.890625 
Q 47.125 21.390625 47.125 36.375 
Q 47.125 51.421875 43.28125 58.90625 
Q 39.453125 66.40625 31.78125 66.40625 
M 31.78125 74.21875 
Q 44.046875 74.21875 50.515625 64.515625 
Q 56.984375 54.828125 56.984375 36.375 
Q 56.984375 17.96875 50.515625 8.265625 
Q 44.046875 -1.421875 31.78125 -1.421875 
Q 19.53125 -1.421875 13.0625 8.265625 
Q 6.59375 17.96875 6.59375 36.375 
Q 6.59375 54.828125 13.0625 64.515625 
Q 19.53125 74.21875 31.78125 74.21875 
" id="BitstreamVeraSans-Roman-30"/>
      </defs>
      <g transform="translate(29.5211938 138.259288659)scale(0.07 -0.07)">
       <use xlink:href="#BitstreamVeraSans-Roman-30"/>
      </g>
     </g>
    </g>
    <g id="xtick_2">
     <g id="line2d_4">
      <g>
       <use style="stroke:#000000;stroke-width:0.5;" x="63.8740908" xlink:href="#m9ef0cf6b05" y="128.940382409"/>
      </g>
     </g>
     <g id="line2d_5">
      <g>
       <use style="stroke:#000000;stroke-width:0.5;" x="63.8740908" xlink:href="#m74a1565c66" y="1.40152589575"/>
      </g>
     </g>
     <g id="text_2">
      <!-- 200 -->
      <defs>
       <path d="M 19.1875 8.296875 
L 53.609375 8.296875 
L 53.609375 0 
L 7.328125 0 
L 7.328125 8.296875 
Q 12.9375 14.109375 22.625 23.890625 
Q 32.328125 33.6875 34.8125 36.53125 
Q 39.546875 41.84375 41.421875 45.53125 
Q 43.3125 49.21875 43.3125 52.78125 
Q 43.3125 58.59375 39.234375 62.25 
Q 35.15625 65.921875 28.609375 65.921875 
Q 23.96875 65.921875 18.8125 64.3125 
Q 13.671875 62.703125 7.8125 59.421875 
L 7.8125 69.390625 
Q 13.765625 71.78125 18.9375 73 
Q 24.125 74.21875 28.421875 74.21875 
Q 39.75 74.21875 46.484375 68.546875 
Q 53.21875 62.890625 53.21875 53.421875 
Q 53.21875 48.921875 51.53125 44.890625 
Q 49.859375 40.875 45.40625 35.40625 
Q 44.1875 33.984375 37.640625 27.21875 
Q 31.109375 20.453125 19.1875 8.296875 
" id="BitstreamVeraSans-Roman-32"/>
      </defs>
      <g transform="translate(57.1934658 138.259288659)scale(0.07 -0.07)">
       <use xlink:href="#BitstreamVeraSans-Roman-32"/>
       <use x="63.623046875" xlink:href="#BitstreamVeraSans-Roman-30"/>
       <use x="127.24609375" xlink:href="#BitstreamVeraSans-Roman-30"/>
      </g>
     </g>
    </g>
    <g id="xtick_3">
     <g id="line2d_6">
      <g>
       <use style="stroke:#000000;stroke-width:0.5;" x="96.0001128" xlink:href="#m9ef0cf6b05" y="128.940382409"/>
      </g>
     </g>
     <g id="line2d_7">
      <g>
       <use style="stroke:#000000;stroke-width:0.5;" x="96.0001128" xlink:href="#m74a1565c66" y="1.40152589575"/>
      </g>
     </g>
     <g id="text_3">
      <!-- 400 -->
      <defs>
       <path d="M 37.796875 64.3125 
L 12.890625 25.390625 
L 37.796875 25.390625 
z
M 35.203125 72.90625 
L 47.609375 72.90625 
L 47.609375 25.390625 
L 58.015625 25.390625 
L 58.015625 17.1875 
L 47.609375 17.1875 
L 47.609375 0 
L 37.796875 0 
L 37.796875 17.1875 
L 4.890625 17.1875 
L 4.890625 26.703125 
z
" id="BitstreamVeraSans-Roman-34"/>
      </defs>
      <g transform="translate(89.3194878 138.259288659)scale(0.07 -0.07)">
       <use xlink:href="#BitstreamVeraSans-Roman-34"/>
       <use x="63.623046875" xlink:href="#BitstreamVeraSans-Roman-30"/>
       <use x="127.24609375" xlink:href="#BitstreamVeraSans-Roman-30"/>
      </g>
     </g>
    </g>
    <g id="xtick_4">
     <g id="line2d_8">
      <g>
       <use style="stroke:#000000;stroke-width:0.5;" x="128.1261348" xlink:href="#m9ef0cf6b05" y="128.940382409"/>
      </g>
     </g>
     <g id="line2d_9">
      <g>
       <use style="stroke:#000000;stroke-width:0.5;" x="128.1261348" xlink:href="#m74a1565c66" y="1.40152589575"/>
      </g>
     </g>
     <g id="text_4">
      <!-- 600 -->
      <defs>
       <path d="M 33.015625 40.375 
Q 26.375 40.375 22.484375 35.828125 
Q 18.609375 31.296875 18.609375 23.390625 
Q 18.609375 15.53125 22.484375 10.953125 
Q 26.375 6.390625 33.015625 6.390625 
Q 39.65625 6.390625 43.53125 10.953125 
Q 47.40625 15.53125 47.40625 23.390625 
Q 47.40625 31.296875 43.53125 35.828125 
Q 39.65625 40.375 33.015625 40.375 
M 52.59375 71.296875 
L 52.59375 62.3125 
Q 48.875 64.0625 45.09375 64.984375 
Q 41.3125 65.921875 37.59375 65.921875 
Q 27.828125 65.921875 22.671875 59.328125 
Q 17.53125 52.734375 16.796875 39.40625 
Q 19.671875 43.65625 24.015625 45.921875 
Q 28.375 48.1875 33.59375 48.1875 
Q 44.578125 48.1875 50.953125 41.515625 
Q 57.328125 34.859375 57.328125 23.390625 
Q 57.328125 12.15625 50.6875 5.359375 
Q 44.046875 -1.421875 33.015625 -1.421875 
Q 20.359375 -1.421875 13.671875 8.265625 
Q 6.984375 17.96875 6.984375 36.375 
Q 6.984375 53.65625 15.1875 63.9375 
Q 23.390625 74.21875 37.203125 74.21875 
Q 40.921875 74.21875 44.703125 73.484375 
Q 48.484375 72.75 52.59375 71.296875 
" id="BitstreamVeraSans-Roman-36"/>
      </defs>
      <g transform="translate(121.4455098 138.259288659)scale(0.07 -0.07)">
       <use xlink:href="#BitstreamVeraSans-Roman-36"/>
       <use x="63.623046875" xlink:href="#BitstreamVeraSans-Roman-30"/>
       <use x="127.24609375" xlink:href="#BitstreamVeraSans-Roman-30"/>
      </g>
     </g>
    </g>
    <g id="xtick_5">
     <g id="line2d_10">
      <g>
       <use style="stroke:#000000;stroke-width:0.5;" x="160.2521568" xlink:href="#m9ef0cf6b05" y="128.940382409"/>
      </g>
     </g>
     <g id="line2d_11">
      <g>
       <use style="stroke:#000000;stroke-width:0.5;" x="160.2521568" xlink:href="#m74a1565c66" y="1.40152589575"/>
      </g>
     </g>
     <g id="text_5">
      <!-- 800 -->
      <defs>
       <path d="M 31.78125 34.625 
Q 24.75 34.625 20.71875 30.859375 
Q 16.703125 27.09375 16.703125 20.515625 
Q 16.703125 13.921875 20.71875 10.15625 
Q 24.75 6.390625 31.78125 6.390625 
Q 38.8125 6.390625 42.859375 10.171875 
Q 46.921875 13.96875 46.921875 20.515625 
Q 46.921875 27.09375 42.890625 30.859375 
Q 38.875 34.625 31.78125 34.625 
M 21.921875 38.8125 
Q 15.578125 40.375 12.03125 44.71875 
Q 8.5 49.078125 8.5 55.328125 
Q 8.5 64.0625 14.71875 69.140625 
Q 20.953125 74.21875 31.78125 74.21875 
Q 42.671875 74.21875 48.875 69.140625 
Q 55.078125 64.0625 55.078125 55.328125 
Q 55.078125 49.078125 51.53125 44.71875 
Q 48 40.375 41.703125 38.8125 
Q 48.828125 37.15625 52.796875 32.3125 
Q 56.78125 27.484375 56.78125 20.515625 
Q 56.78125 9.90625 50.3125 4.234375 
Q 43.84375 -1.421875 31.78125 -1.421875 
Q 19.734375 -1.421875 13.25 4.234375 
Q 6.78125 9.90625 6.78125 20.515625 
Q 6.78125 27.484375 10.78125 32.3125 
Q 14.796875 37.15625 21.921875 38.8125 
M 18.3125 54.390625 
Q 18.3125 48.734375 21.84375 45.5625 
Q 25.390625 42.390625 31.78125 42.390625 
Q 38.140625 42.390625 41.71875 45.5625 
Q 45.3125 48.734375 45.3125 54.390625 
Q 45.3125 60.0625 41.71875 63.234375 
Q 38.140625 66.40625 31.78125 66.40625 
Q 25.390625 66.40625 21.84375 63.234375 
Q 18.3125 60.0625 18.3125 54.390625 
" id="BitstreamVeraSans-Roman-38"/>
      </defs>
      <g transform="translate(153.5715318 138.259288659)scale(0.07 -0.07)">
       <use xlink:href="#BitstreamVeraSans-Roman-38"/>
       <use x="63.623046875" xlink:href="#BitstreamVeraSans-Roman-30"/>
       <use x="127.24609375" xlink:href="#BitstreamVeraSans-Roman-30"/>
      </g>
     </g>
    </g>
    <g id="xtick_6">
     <g id="line2d_12">
      <g>
       <use style="stroke:#000000;stroke-width:0.5;" x="192.3781788" xlink:href="#m9ef0cf6b05" y="128.940382409"/>
      </g>
     </g>
     <g id="line2d_13">
      <g>
       <use style="stroke:#000000;stroke-width:0.5;" x="192.3781788" xlink:href="#m74a1565c66" y="1.40152589575"/>
      </g>
     </g>
     <g id="text_6">
      <!-- 1000 -->
      <defs>
       <path d="M 12.40625 8.296875 
L 28.515625 8.296875 
L 28.515625 63.921875 
L 10.984375 60.40625 
L 10.984375 69.390625 
L 28.421875 72.90625 
L 38.28125 72.90625 
L 38.28125 8.296875 
L 54.390625 8.296875 
L 54.390625 0 
L 12.40625 0 
z
" id="BitstreamVeraSans-Roman-31"/>
      </defs>
      <g transform="translate(183.4706788 138.259288659)scale(0.07 -0.07)">
       <use xlink:href="#BitstreamVeraSans-Roman-31"/>
       <use x="63.623046875" xlink:href="#BitstreamVeraSans-Roman-30"/>
       <use x="127.24609375" xlink:href="#BitstreamVeraSans-Roman-30"/>
       <use x="190.869140625" xlink:href="#BitstreamVeraSans-Roman-30"/>
      </g>
     </g>
    </g>
    <g id="xtick_7">
     <g id="line2d_14">
      <g>
       <use style="stroke:#000000;stroke-width:0.5;" x="224.5042008" xlink:href="#m9ef0cf6b05" y="128.940382409"/>
      </g>
     </g>
     <g id="line2d_15">
      <g>
       <use style="stroke:#000000;stroke-width:0.5;" x="224.5042008" xlink:href="#m74a1565c66" y="1.40152589575"/>
      </g>
     </g>
     <g id="text_7">
      <!-- 1200 -->
      <g transform="translate(215.5967008 138.259288659)scale(0.07 -0.07)">
       <use xlink:href="#BitstreamVeraSans-Roman-31"/>
       <use x="63.623046875" xlink:href="#BitstreamVeraSans-Roman-32"/>
       <use x="127.24609375" xlink:href="#BitstreamVeraSans-Roman-30"/>
       <use x="190.869140625" xlink:href="#BitstreamVeraSans-Roman-30"/>
      </g>
     </g>
    </g>
    <g id="xtick_8">
     <g id="line2d_16">
      <defs>
       <path d="M 0 0 
L 0 -2 
" id="m4167eb9bc1" style="stroke:#000000;stroke-width:0.5;"/>
      </defs>
      <g>
       <use style="stroke:#000000;stroke-width:0.5;" x="39.7795743" xlink:href="#m4167eb9bc1" y="128.940382409"/>
      </g>
     </g>
     <g id="line2d_17">
      <defs>
       <path d="M 0 0 
L 0 2 
" id="m2f61931247" style="stroke:#000000;stroke-width:0.5;"/>
      </defs>
      <g>
       <use style="stroke:#000000;stroke-width:0.5;" x="39.7795743" xlink:href="#m2f61931247" y="1.40152589575"/>
      </g>
     </g>
    </g>
    <g id="xtick_9">
     <g id="line2d_18">
      <g>
       <use style="stroke:#000000;stroke-width:0.5;" x="47.8110798" xlink:href="#m4167eb9bc1" y="128.940382409"/>
      </g>
     </g>
     <g id="line2d_19">
      <g>
       <use style="stroke:#000000;stroke-width:0.5;" x="47.8110798" xlink:href="#m2f61931247" y="1.40152589575"/>
      </g>
     </g>
    </g>
    <g id="xtick_10">
     <g id="line2d_20">
      <g>
       <use style="stroke:#000000;stroke-width:0.5;" x="55.8425853" xlink:href="#m4167eb9bc1" y="128.940382409"/>
      </g>
     </g>
     <g id="line2d_21">
      <g>
       <use style="stroke:#000000;stroke-width:0.5;" x="55.8425853" xlink:href="#m2f61931247" y="1.40152589575"/>
      </g>
     </g>
    </g>
    <g id="xtick_11">
     <g id="line2d_22">
      <g>
       <use style="stroke:#000000;stroke-width:0.5;" x="71.9055963" xlink:href="#m4167eb9bc1" y="128.940382409"/>
      </g>
     </g>
     <g id="line2d_23">
      <g>
       <use style="stroke:#000000;stroke-width:0.5;" x="71.9055963" xlink:href="#m2f61931247" y="1.40152589575"/>
      </g>
     </g>
    </g>
    <g id="xtick_12">
     <g id="line2d_24">
      <g>
       <use style="stroke:#000000;stroke-width:0.5;" x="79.9371018" xlink:href="#m4167eb9bc1" y="128.940382409"/>
      </g>
     </g>
     <g id="line2d_25">
      <g>
       <use style="stroke:#000000;stroke-width:0.5;" x="79.9371018" xlink:href="#m2f61931247" y="1.40152589575"/>
      </g>
     </g>
    </g>
    <g id="xtick_13">
     <g id="line2d_26">
      <g>
       <use style="stroke:#000000;stroke-width:0.5;" x="87.9686073" xlink:href="#m4167eb9bc1" y="128.940382409"/>
      </g>
     </g>
     <g id="line2d_27">
      <g>
       <use style="stroke:#000000;stroke-width:0.5;" x="87.9686073" xlink:href="#m2f61931247" y="1.40152589575"/>
      </g>
     </g>
    </g>
    <g id="xtick_14">
     <g id="line2d_28">
      <g>
       <use style="stroke:#000000;stroke-width:0.5;" x="104.0316183" xlink:href="#m4167eb9bc1" y="128.940382409"/>
      </g>
     </g>
     <g id="line2d_29">
      <g>
       <use style="stroke:#000000;stroke-width:0.5;" x="104.0316183" xlink:href="#m2f61931247" y="1.40152589575"/>
      </g>
     </g>
    </g>
    <g id="xtick_15">
     <g id="line2d_30">
      <g>
       <use style="stroke:#000000;stroke-width:0.5;" x="112.0631238" xlink:href="#m4167eb9bc1" y="128.940382409"/>
      </g>
     </g>
     <g id="line2d_31">
      <g>
       <use style="stroke:#000000;stroke-width:0.5;" x="112.0631238" xlink:href="#m2f61931247" y="1.40152589575"/>
      </g>
     </g>
    </g>
    <g id="xtick_16">
     <g id="line2d_32">
      <g>
       <use style="stroke:#000000;stroke-width:0.5;" x="120.0946293" xlink:href="#m4167eb9bc1" y="128.940382409"/>
      </g>
     </g>
     <g id="line2d_33">
      <g>
       <use style="stroke:#000000;stroke-width:0.5;" x="120.0946293" xlink:href="#m2f61931247" y="1.40152589575"/>
      </g>
     </g>
    </g>
    <g id="xtick_17">
     <g id="line2d_34">
      <g>
       <use style="stroke:#000000;stroke-width:0.5;" x="136.1576403" xlink:href="#m4167eb9bc1" y="128.940382409"/>
      </g>
     </g>
     <g id="line2d_35">
      <g>
       <use style="stroke:#000000;stroke-width:0.5;" x="136.1576403" xlink:href="#m2f61931247" y="1.40152589575"/>
      </g>
     </g>
    </g>
    <g id="xtick_18">
     <g id="line2d_36">
      <g>
       <use style="stroke:#000000;stroke-width:0.5;" x="144.1891458" xlink:href="#m4167eb9bc1" y="128.940382409"/>
      </g>
     </g>
     <g id="line2d_37">
      <g>
       <use style="stroke:#000000;stroke-width:0.5;" x="144.1891458" xlink:href="#m2f61931247" y="1.40152589575"/>
      </g>
     </g>
    </g>
    <g id="xtick_19">
     <g id="line2d_38">
      <g>
       <use style="stroke:#000000;stroke-width:0.5;" x="152.2206513" xlink:href="#m4167eb9bc1" y="128.940382409"/>
      </g>
     </g>
     <g id="line2d_39">
      <g>
       <use style="stroke:#000000;stroke-width:0.5;" x="152.2206513" xlink:href="#m2f61931247" y="1.40152589575"/>
      </g>
     </g>
    </g>
    <g id="xtick_20">
     <g id="line2d_40">
      <g>
       <use style="stroke:#000000;stroke-width:0.5;" x="168.2836623" xlink:href="#m4167eb9bc1" y="128.940382409"/>
      </g>
     </g>
     <g id="line2d_41">
      <g>
       <use style="stroke:#000000;stroke-width:0.5;" x="168.2836623" xlink:href="#m2f61931247" y="1.40152589575"/>
      </g>
     </g>
    </g>
    <g id="xtick_21">
     <g id="line2d_42">
      <g>
       <use style="stroke:#000000;stroke-width:0.5;" x="176.3151678" xlink:href="#m4167eb9bc1" y="128.940382409"/>
      </g>
     </g>
     <g id="line2d_43">
      <g>
       <use style="stroke:#000000;stroke-width:0.5;" x="176.3151678" xlink:href="#m2f61931247" y="1.40152589575"/>
      </g>
     </g>
    </g>
    <g id="xtick_22">
     <g id="line2d_44">
      <g>
       <use style="stroke:#000000;stroke-width:0.5;" x="184.3466733" xlink:href="#m4167eb9bc1" y="128.940382409"/>
      </g>
     </g>
     <g id="line2d_45">
      <g>
       <use style="stroke:#000000;stroke-width:0.5;" x="184.3466733" xlink:href="#m2f61931247" y="1.40152589575"/>
      </g>
     </g>
    </g>
    <g id="xtick_23">
     <g id="line2d_46">
      <g>
       <use style="stroke:#000000;stroke-width:0.5;" x="200.4096843" xlink:href="#m4167eb9bc1" y="128.940382409"/>
      </g>
     </g>
     <g id="line2d_47">
      <g>
       <use style="stroke:#000000;stroke-width:0.5;" x="200.4096843" xlink:href="#m2f61931247" y="1.40152589575"/>
      </g>
     </g>
    </g>
    <g id="xtick_24">
     <g id="line2d_48">
      <g>
       <use style="stroke:#000000;stroke-width:0.5;" x="208.4411898" xlink:href="#m4167eb9bc1" y="128.940382409"/>
      </g>
     </g>
     <g id="line2d_49">
      <g>
       <use style="stroke:#000000;stroke-width:0.5;" x="208.4411898" xlink:href="#m2f61931247" y="1.40152589575"/>
      </g>
     </g>
    </g>
    <g id="xtick_25">
     <g id="line2d_50">
      <g>
       <use style="stroke:#000000;stroke-width:0.5;" x="216.4726953" xlink:href="#m4167eb9bc1" y="128.940382409"/>
      </g>
     </g>
     <g id="line2d_51">
      <g>
       <use style="stroke:#000000;stroke-width:0.5;" x="216.4726953" xlink:href="#m2f61931247" y="1.40152589575"/>
      </g>
     </g>
    </g>
   </g>
   <g id="matplotlib.axis_2">
    <g id="ytick_1">
     <g id="line2d_52">
      <defs>
       <path d="M 0 0 
L 4 0 
" id="m8c2dd1c456" style="stroke:#000000;stroke-width:0.5;"/>
      </defs>
      <g>
       <use style="stroke:#000000;stroke-width:0.5;" x="31.7480688" xlink:href="#m8c2dd1c456" y="128.940382409"/>
      </g>
     </g>
     <g id="line2d_53">
      <defs>
       <path d="M 0 0 
L -4 0 
" id="m84ca6e0f50" style="stroke:#000000;stroke-width:0.5;"/>
      </defs>
      <g>
       <use style="stroke:#000000;stroke-width:0.5;" x="224.5042008" xlink:href="#m84ca6e0f50" y="128.940382409"/>
      </g>
     </g>
     <g id="text_8">
      <!-- −2000 -->
      <defs>
       <path d="M 10.59375 35.5 
L 73.1875 35.5 
L 73.1875 27.203125 
L 10.59375 27.203125 
z
" id="BitstreamVeraSans-Roman-2212"/>
      </defs>
      <g transform="translate(4.06728755 130.871944909)scale(0.07 -0.07)">
       <use xlink:href="#BitstreamVeraSans-Roman-2212"/>
       <use x="83.7890625" xlink:href="#BitstreamVeraSans-Roman-32"/>
       <use x="147.412109375" xlink:href="#BitstreamVeraSans-Roman-30"/>
       <use x="211.03515625" xlink:href="#BitstreamVeraSans-Roman-30"/>
       <use x="274.658203125" xlink:href="#BitstreamVeraSans-Roman-30"/>
      </g>
     </g>
    </g>
    <g id="ytick_2">
     <g id="line2d_54">
      <g>
       <use style="stroke:#000000;stroke-width:0.5;" x="31.7480688" xlink:href="#m8c2dd1c456" y="112.998025345"/>
      </g>
     </g>
     <g id="line2d_55">
      <g>
       <use style="stroke:#000000;stroke-width:0.5;" x="224.5042008" xlink:href="#m84ca6e0f50" y="112.998025345"/>
      </g>
     </g>
     <g id="text_9">
      <!-- 0 -->
      <g transform="translate(23.2943188 114.929587845)scale(0.07 -0.07)">
       <use xlink:href="#BitstreamVeraSans-Roman-30"/>
      </g>
     </g>
    </g>
    <g id="ytick_3">
     <g id="line2d_56">
      <g>
       <use style="stroke:#000000;stroke-width:0.5;" x="31.7480688" xlink:href="#m8c2dd1c456" y="97.0556682805"/>
      </g>
     </g>
     <g id="line2d_57">
      <g>
       <use style="stroke:#000000;stroke-width:0.5;" x="224.5042008" xlink:href="#m84ca6e0f50" y="97.0556682805"/>
      </g>
     </g>
     <g id="text_10">
      <!-- 2000 -->
      <g transform="translate(9.9330688 98.9872307805)scale(0.07 -0.07)">
       <use xlink:href="#BitstreamVeraSans-Roman-32"/>
       <use x="63.623046875" xlink:href="#BitstreamVeraSans-Roman-30"/>
       <use x="127.24609375" xlink:href="#BitstreamVeraSans-Roman-30"/>
       <use x="190.869140625" xlink:href="#BitstreamVeraSans-Roman-30"/>
      </g>
     </g>
    </g>
    <g id="ytick_4">
     <g id="line2d_58">
      <g>
       <use style="stroke:#000000;stroke-width:0.5;" x="31.7480688" xlink:href="#m8c2dd1c456" y="81.1133112164"/>
      </g>
     </g>
     <g id="line2d_59">
      <g>
       <use style="stroke:#000000;stroke-width:0.5;" x="224.5042008" xlink:href="#m84ca6e0f50" y="81.1133112164"/>
      </g>
     </g>
     <g id="text_11">
      <!-- 4000 -->
      <g transform="translate(9.9330688 83.0448737164)scale(0.07 -0.07)">
       <use xlink:href="#BitstreamVeraSans-Roman-34"/>
       <use x="63.623046875" xlink:href="#BitstreamVeraSans-Roman-30"/>
       <use x="127.24609375" xlink:href="#BitstreamVeraSans-Roman-30"/>
       <use x="190.869140625" xlink:href="#BitstreamVeraSans-Roman-30"/>
      </g>
     </g>
    </g>
    <g id="ytick_5">
     <g id="line2d_60">
      <g>
       <use style="stroke:#000000;stroke-width:0.5;" x="31.7480688" xlink:href="#m8c2dd1c456" y="65.1709541523"/>
      </g>
     </g>
     <g id="line2d_61">
      <g>
       <use style="stroke:#000000;stroke-width:0.5;" x="224.5042008" xlink:href="#m84ca6e0f50" y="65.1709541523"/>
      </g>
     </g>
     <g id="text_12">
      <!-- 6000 -->
      <g transform="translate(9.9330688 67.1025166523)scale(0.07 -0.07)">
       <use xlink:href="#BitstreamVeraSans-Roman-36"/>
       <use x="63.623046875" xlink:href="#BitstreamVeraSans-Roman-30"/>
       <use x="127.24609375" xlink:href="#BitstreamVeraSans-Roman-30"/>
       <use x="190.869140625" xlink:href="#BitstreamVeraSans-Roman-30"/>
      </g>
     </g>
    </g>
    <g id="ytick_6">
     <g id="line2d_62">
      <g>
       <use style="stroke:#000000;stroke-width:0.5;" x="31.7480688" xlink:href="#m8c2dd1c456" y="49.2285970881"/>
      </g>
     </g>
     <g id="line2d_63">
      <g>
       <use style="stroke:#000000;stroke-width:0.5;" x="224.5042008" xlink:href="#m84ca6e0f50" y="49.2285970881"/>
      </g>
     </g>
     <g id="text_13">
      <!-- 8000 -->
      <g transform="translate(9.9330688 51.1601595881)scale(0.07 -0.07)">
       <use xlink:href="#BitstreamVeraSans-Roman-38"/>
       <use x="63.623046875" xlink:href="#BitstreamVeraSans-Roman-30"/>
       <use x="127.24609375" xlink:href="#BitstreamVeraSans-Roman-30"/>
       <use x="190.869140625" xlink:href="#BitstreamVeraSans-Roman-30"/>
      </g>
     </g>
    </g>
    <g id="ytick_7">
     <g id="line2d_64">
      <g>
       <use style="stroke:#000000;stroke-width:0.5;" x="31.7480688" xlink:href="#m8c2dd1c456" y="33.286240024"/>
      </g>
     </g>
     <g id="line2d_65">
      <g>
       <use style="stroke:#000000;stroke-width:0.5;" x="224.5042008" xlink:href="#m84ca6e0f50" y="33.286240024"/>
      </g>
     </g>
     <g id="text_14">
      <!-- 10000 -->
      <g transform="translate(5.4793188 35.217802524)scale(0.07 -0.07)">
       <use xlink:href="#BitstreamVeraSans-Roman-31"/>
       <use x="63.623046875" xlink:href="#BitstreamVeraSans-Roman-30"/>
       <use x="127.24609375" xlink:href="#BitstreamVeraSans-Roman-30"/>
       <use x="190.869140625" xlink:href="#BitstreamVeraSans-Roman-30"/>
       <use x="254.4921875" xlink:href="#BitstreamVeraSans-Roman-30"/>
      </g>
     </g>
    </g>
    <g id="ytick_8">
     <g id="line2d_66">
      <g>
       <use style="stroke:#000000;stroke-width:0.5;" x="31.7480688" xlink:href="#m8c2dd1c456" y="17.3438829599"/>
      </g>
     </g>
     <g id="line2d_67">
      <g>
       <use style="stroke:#000000;stroke-width:0.5;" x="224.5042008" xlink:href="#m84ca6e0f50" y="17.3438829599"/>
      </g>
     </g>
     <g id="text_15">
      <!-- 12000 -->
      <g transform="translate(5.4793188 19.2754454599)scale(0.07 -0.07)">
       <use xlink:href="#BitstreamVeraSans-Roman-31"/>
       <use x="63.623046875" xlink:href="#BitstreamVeraSans-Roman-32"/>
       <use x="127.24609375" xlink:href="#BitstreamVeraSans-Roman-30"/>
       <use x="190.869140625" xlink:href="#BitstreamVeraSans-Roman-30"/>
       <use x="254.4921875" xlink:href="#BitstreamVeraSans-Roman-30"/>
      </g>
     </g>
    </g>
    <g id="ytick_9">
     <g id="line2d_68">
      <g>
       <use style="stroke:#000000;stroke-width:0.5;" x="31.7480688" xlink:href="#m8c2dd1c456" y="1.40152589575"/>
      </g>
     </g>
     <g id="line2d_69">
      <g>
       <use style="stroke:#000000;stroke-width:0.5;" x="224.5042008" xlink:href="#m84ca6e0f50" y="1.40152589575"/>
      </g>
     </g>
     <g id="text_16">
      <!-- 14000 -->
      <g transform="translate(5.4793188 3.33308839575)scale(0.07 -0.07)">
       <use xlink:href="#BitstreamVeraSans-Roman-31"/>
       <use x="63.623046875" xlink:href="#BitstreamVeraSans-Roman-34"/>
       <use x="127.24609375" xlink:href="#BitstreamVeraSans-Roman-30"/>
       <use x="190.869140625" xlink:href="#BitstreamVeraSans-Roman-30"/>
       <use x="254.4921875" xlink:href="#BitstreamVeraSans-Roman-30"/>
      </g>
     </g>
    </g>
    <g id="ytick_10">
     <g id="line2d_70">
      <defs>
       <path d="M 0 0 
L 2 0 
" id="m4cf156f606" style="stroke:#000000;stroke-width:0.5;"/>
      </defs>
      <g>
       <use style="stroke:#000000;stroke-width:0.5;" x="31.7480688" xlink:href="#m4cf156f606" y="124.954793143"/>
      </g>
     </g>
     <g id="line2d_71">
      <defs>
       <path d="M 0 0 
L -2 0 
" id="mc9104190f0" style="stroke:#000000;stroke-width:0.5;"/>
      </defs>
      <g>
       <use style="stroke:#000000;stroke-width:0.5;" x="224.5042008" xlink:href="#mc9104190f0" y="124.954793143"/>
      </g>
     </g>
    </g>
    <g id="ytick_11">
     <g id="line2d_72">
      <g>
       <use style="stroke:#000000;stroke-width:0.5;" x="31.7480688" xlink:href="#m4cf156f606" y="120.969203877"/>
      </g>
     </g>
     <g id="line2d_73">
      <g>
       <use style="stroke:#000000;stroke-width:0.5;" x="224.5042008" xlink:href="#mc9104190f0" y="120.969203877"/>
      </g>
     </g>
    </g>
    <g id="ytick_12">
     <g id="line2d_74">
      <g>
       <use style="stroke:#000000;stroke-width:0.5;" x="31.7480688" xlink:href="#m4cf156f606" y="116.983614611"/>
      </g>
     </g>
     <g id="line2d_75">
      <g>
       <use style="stroke:#000000;stroke-width:0.5;" x="224.5042008" xlink:href="#mc9104190f0" y="116.983614611"/>
      </g>
     </g>
    </g>
    <g id="ytick_13">
     <g id="line2d_76">
      <g>
       <use style="stroke:#000000;stroke-width:0.5;" x="31.7480688" xlink:href="#m4cf156f606" y="109.012436079"/>
      </g>
     </g>
     <g id="line2d_77">
      <g>
       <use style="stroke:#000000;stroke-width:0.5;" x="224.5042008" xlink:href="#mc9104190f0" y="109.012436079"/>
      </g>
     </g>
    </g>
    <g id="ytick_14">
     <g id="line2d_78">
      <g>
       <use style="stroke:#000000;stroke-width:0.5;" x="31.7480688" xlink:href="#m4cf156f606" y="105.026846813"/>
      </g>
     </g>
     <g id="line2d_79">
      <g>
       <use style="stroke:#000000;stroke-width:0.5;" x="224.5042008" xlink:href="#mc9104190f0" y="105.026846813"/>
      </g>
     </g>
    </g>
    <g id="ytick_15">
     <g id="line2d_80">
      <g>
       <use style="stroke:#000000;stroke-width:0.5;" x="31.7480688" xlink:href="#m4cf156f606" y="101.041257547"/>
      </g>
     </g>
     <g id="line2d_81">
      <g>
       <use style="stroke:#000000;stroke-width:0.5;" x="224.5042008" xlink:href="#mc9104190f0" y="101.041257547"/>
      </g>
     </g>
    </g>
    <g id="ytick_16">
     <g id="line2d_82">
      <g>
       <use style="stroke:#000000;stroke-width:0.5;" x="31.7480688" xlink:href="#m4cf156f606" y="93.0700790145"/>
      </g>
     </g>
     <g id="line2d_83">
      <g>
       <use style="stroke:#000000;stroke-width:0.5;" x="224.5042008" xlink:href="#mc9104190f0" y="93.0700790145"/>
      </g>
     </g>
    </g>
    <g id="ytick_17">
     <g id="line2d_84">
      <g>
       <use style="stroke:#000000;stroke-width:0.5;" x="31.7480688" xlink:href="#m4cf156f606" y="89.0844897485"/>
      </g>
     </g>
     <g id="line2d_85">
      <g>
       <use style="stroke:#000000;stroke-width:0.5;" x="224.5042008" xlink:href="#mc9104190f0" y="89.0844897485"/>
      </g>
     </g>
    </g>
    <g id="ytick_18">
     <g id="line2d_86">
      <g>
       <use style="stroke:#000000;stroke-width:0.5;" x="31.7480688" xlink:href="#m4cf156f606" y="85.0989004824"/>
      </g>
     </g>
     <g id="line2d_87">
      <g>
       <use style="stroke:#000000;stroke-width:0.5;" x="224.5042008" xlink:href="#mc9104190f0" y="85.0989004824"/>
      </g>
     </g>
    </g>
    <g id="ytick_19">
     <g id="line2d_88">
      <g>
       <use style="stroke:#000000;stroke-width:0.5;" x="31.7480688" xlink:href="#m4cf156f606" y="77.1277219504"/>
      </g>
     </g>
     <g id="line2d_89">
      <g>
       <use style="stroke:#000000;stroke-width:0.5;" x="224.5042008" xlink:href="#mc9104190f0" y="77.1277219504"/>
      </g>
     </g>
    </g>
    <g id="ytick_20">
     <g id="line2d_90">
      <g>
       <use style="stroke:#000000;stroke-width:0.5;" x="31.7480688" xlink:href="#m4cf156f606" y="73.1421326843"/>
      </g>
     </g>
     <g id="line2d_91">
      <g>
       <use style="stroke:#000000;stroke-width:0.5;" x="224.5042008" xlink:href="#mc9104190f0" y="73.1421326843"/>
      </g>
     </g>
    </g>
    <g id="ytick_21">
     <g id="line2d_92">
      <g>
       <use style="stroke:#000000;stroke-width:0.5;" x="31.7480688" xlink:href="#m4cf156f606" y="69.1565434183"/>
      </g>
     </g>
     <g id="line2d_93">
      <g>
       <use style="stroke:#000000;stroke-width:0.5;" x="224.5042008" xlink:href="#mc9104190f0" y="69.1565434183"/>
      </g>
     </g>
    </g>
    <g id="ytick_22">
     <g id="line2d_94">
      <g>
       <use style="stroke:#000000;stroke-width:0.5;" x="31.7480688" xlink:href="#m4cf156f606" y="61.1853648862"/>
      </g>
     </g>
     <g id="line2d_95">
      <g>
       <use style="stroke:#000000;stroke-width:0.5;" x="224.5042008" xlink:href="#mc9104190f0" y="61.1853648862"/>
      </g>
     </g>
    </g>
    <g id="ytick_23">
     <g id="line2d_96">
      <g>
       <use style="stroke:#000000;stroke-width:0.5;" x="31.7480688" xlink:href="#m4cf156f606" y="57.1997756202"/>
      </g>
     </g>
     <g id="line2d_97">
      <g>
       <use style="stroke:#000000;stroke-width:0.5;" x="224.5042008" xlink:href="#mc9104190f0" y="57.1997756202"/>
      </g>
     </g>
    </g>
    <g id="ytick_24">
     <g id="line2d_98">
      <g>
       <use style="stroke:#000000;stroke-width:0.5;" x="31.7480688" xlink:href="#m4cf156f606" y="53.2141863542"/>
      </g>
     </g>
     <g id="line2d_99">
      <g>
       <use style="stroke:#000000;stroke-width:0.5;" x="224.5042008" xlink:href="#mc9104190f0" y="53.2141863542"/>
      </g>
     </g>
    </g>
    <g id="ytick_25">
     <g id="line2d_100">
      <g>
       <use style="stroke:#000000;stroke-width:0.5;" x="31.7480688" xlink:href="#m4cf156f606" y="45.2430078221"/>
      </g>
     </g>
     <g id="line2d_101">
      <g>
       <use style="stroke:#000000;stroke-width:0.5;" x="224.5042008" xlink:href="#mc9104190f0" y="45.2430078221"/>
      </g>
     </g>
    </g>
    <g id="ytick_26">
     <g id="line2d_102">
      <g>
       <use style="stroke:#000000;stroke-width:0.5;" x="31.7480688" xlink:href="#m4cf156f606" y="41.2574185561"/>
      </g>
     </g>
     <g id="line2d_103">
      <g>
       <use style="stroke:#000000;stroke-width:0.5;" x="224.5042008" xlink:href="#mc9104190f0" y="41.2574185561"/>
      </g>
     </g>
    </g>
    <g id="ytick_27">
     <g id="line2d_104">
      <g>
       <use style="stroke:#000000;stroke-width:0.5;" x="31.7480688" xlink:href="#m4cf156f606" y="37.27182929"/>
      </g>
     </g>
     <g id="line2d_105">
      <g>
       <use style="stroke:#000000;stroke-width:0.5;" x="224.5042008" xlink:href="#mc9104190f0" y="37.27182929"/>
      </g>
     </g>
    </g>
    <g id="ytick_28">
     <g id="line2d_106">
      <g>
       <use style="stroke:#000000;stroke-width:0.5;" x="31.7480688" xlink:href="#m4cf156f606" y="29.300650758"/>
      </g>
     </g>
     <g id="line2d_107">
      <g>
       <use style="stroke:#000000;stroke-width:0.5;" x="224.5042008" xlink:href="#mc9104190f0" y="29.300650758"/>
      </g>
     </g>
    </g>
    <g id="ytick_29">
     <g id="line2d_108">
      <g>
       <use style="stroke:#000000;stroke-width:0.5;" x="31.7480688" xlink:href="#m4cf156f606" y="25.3150614919"/>
      </g>
     </g>
     <g id="line2d_109">
      <g>
       <use style="stroke:#000000;stroke-width:0.5;" x="224.5042008" xlink:href="#mc9104190f0" y="25.3150614919"/>
      </g>
     </g>
    </g>
    <g id="ytick_30">
     <g id="line2d_110">
      <g>
       <use style="stroke:#000000;stroke-width:0.5;" x="31.7480688" xlink:href="#m4cf156f606" y="21.3294722259"/>
      </g>
     </g>
     <g id="line2d_111">
      <g>
       <use style="stroke:#000000;stroke-width:0.5;" x="224.5042008" xlink:href="#mc9104190f0" y="21.3294722259"/>
      </g>
     </g>
    </g>
    <g id="ytick_31">
     <g id="line2d_112">
      <g>
       <use style="stroke:#000000;stroke-width:0.5;" x="31.7480688" xlink:href="#m4cf156f606" y="13.3582936938"/>
      </g>
     </g>
     <g id="line2d_113">
      <g>
       <use style="stroke:#000000;stroke-width:0.5;" x="224.5042008" xlink:href="#mc9104190f0" y="13.3582936938"/>
      </g>
     </g>
    </g>
    <g id="ytick_32">
     <g id="line2d_114">
      <g>
       <use style="stroke:#000000;stroke-width:0.5;" x="31.7480688" xlink:href="#m4cf156f606" y="9.37270442781"/>
      </g>
     </g>
     <g id="line2d_115">
      <g>
       <use style="stroke:#000000;stroke-width:0.5;" x="224.5042008" xlink:href="#mc9104190f0" y="9.37270442781"/>
      </g>
     </g>
    </g>
    <g id="ytick_33">
     <g id="line2d_116">
      <g>
       <use style="stroke:#000000;stroke-width:0.5;" x="31.7480688" xlink:href="#m4cf156f606" y="5.38711516178"/>
      </g>
     </g>
     <g id="line2d_117">
      <g>
       <use style="stroke:#000000;stroke-width:0.5;" x="224.5042008" xlink:href="#mc9104190f0" y="5.38711516178"/>
      </g>
     </g>
    </g>
   </g>
  </g>
 </g>
 <defs>
  <clipPath id="pc6ffed1cdf">
   <rect height="127.538856513" width="192.756132" x="31.7480688" y="1.40152589575"/>
  </clipPath>
 </defs>
</svg>
